<svg width="100%" height="100%" viewBox="0 0 17 16" fill="none" xmlns="http://www.w3.org/2000/svg">
<path d="M2.5 10.8784C2.5 10.5151 2.5933 10.1579 2.77096 9.84098L6.477 3.23022C6.80887 2.63823 7.38339 2.22131 8.04911 2.08937V2.08937C8.34681 2.03036 8.65319 2.03036 8.95089 2.08937V2.08937C9.61661 2.22131 10.1911 2.63823 10.523 3.23021L14.229 9.84098C14.4067 10.1579 14.5 10.5151 14.5 10.8784V10.8784C14.5 12.0501 13.5501 13 12.3784 13H4.62156C3.44986 13 2.5 12.0501 2.5 10.8784V10.8784Z" stroke="currentColor" stroke-width="1.1"/>
<path d="M8.5 6.00002L8.5 8.66669" stroke="currentColor" stroke-width="1.1" stroke-linecap="round" stroke-linejoin="round"/>
<path d="M8.5 10.6667L8.5 11" stroke="currentColor" stroke-width="1.1" stroke-linecap="round" stroke-linejoin="round"/>
</svg>
