<svg width="100%" height="100%" viewBox="0 0 25 24" fill="none" xmlns="http://www.w3.org/2000/svg">
<path d="M21.2994 11.2156L21.9575 10.8557L21.2994 11.2156ZM21.2994 12.7846L21.9574 13.1444L21.2994 12.7846ZM3.70058 11.2154L4.3586 11.5753L3.70058 11.2154ZM3.70057 12.7844L3.04254 13.1443H3.04254L3.70057 12.7844ZM20.0236 8.30907C19.727 8.0199 19.2522 8.0259 18.963 8.32247C18.6738 8.61904 18.6798 9.09387 18.9764 9.38304L20.0236 8.30907ZM10.1863 16.9596C9.78505 16.8567 9.37638 17.0986 9.2735 17.4998C9.17062 17.9011 9.41249 18.3097 9.81372 18.4126L10.1863 16.9596ZM15.104 6.34114L14.9099 7.06559L15.104 6.34114ZM7.57264 16.7089L7.20374 17.3619L8.00475 16.0959L7.57264 16.7089ZM4.3586 11.5753C5.93153 8.69919 8.9879 6.75 12.5 6.75V5.25C8.41882 5.25 4.86847 7.51686 3.04256 10.8556L4.3586 11.5753ZM20.6414 12.4247C19.0685 15.3008 16.0121 17.25 12.5 17.25V18.75C16.5812 18.75 20.1315 16.4831 21.9574 13.1444L20.6414 12.4247ZM20.6414 11.5754C20.7862 11.8402 20.7862 12.1599 20.6414 12.4247L21.9574 13.1444C22.3475 12.4312 22.3475 11.569 21.9575 10.8557L20.6414 11.5754ZM3.04256 10.8556C2.65249 11.5688 2.65248 12.431 3.04254 13.1443L4.3586 12.4246C4.2138 12.1598 4.2138 11.8401 4.3586 11.5753L3.04256 10.8556ZM18.9764 9.38304C19.6347 10.0249 20.1974 10.7635 20.6414 11.5754L21.9575 10.8557C21.4413 9.91179 20.7876 9.05403 20.0236 8.30907L18.9764 9.38304ZM12.5 17.25C11.7002 17.25 10.9251 17.1491 10.1863 16.9596L9.81372 18.4126C10.6732 18.633 11.5735 18.75 12.5 18.75V17.25ZM12.5 6.75C13.3346 6.75 14.1423 6.85991 14.9099 7.06559L15.2981 5.6167C14.405 5.37739 13.4668 5.25 12.5 5.25V6.75ZM6.42995 14.9904C5.59529 14.2678 4.89151 13.399 4.3586 12.4246L3.04254 13.1443C3.66202 14.2771 4.47944 15.2858 5.44816 16.1244L6.42995 14.9904ZM7.94154 16.0559C7.40181 15.751 6.8956 15.3935 6.42995 14.9904L5.44816 16.1244C5.98873 16.5924 6.57659 17.0076 7.20374 17.3619L7.94154 16.0559ZM5.50695 16.1704L7.14054 17.3219L8.00475 16.0959L6.37116 14.9444L5.50695 16.1704ZM14.9099 7.06559C15.6269 7.2577 16.3096 7.53359 16.9471 7.88219L17.6668 6.56615C16.926 6.161 16.1321 5.84016 15.2981 5.6167L14.9099 7.06559Z" fill="currentColor"/>
<path d="M19.9644 4.46433L4.96436 19.4643" stroke="currentColor" stroke-width="1.5" stroke-linecap="round" stroke-linejoin="round"/>
<path d="M9.5 12C9.5 10.3431 10.8431 9 12.5 9" stroke="currentColor" stroke-width="1.5" stroke-linecap="round"/>
</svg>
